<svg xmlns="http://www.w3.org/2000/svg" width="30" height="30" fill="none" xmlns:v="https://vecta.io/nano"><path stroke="#DDD" fill="#000" d="M14.875 13.911L2.167 17.523a1.02 1.02 0 0 0-.162 1.894l3.183 1.529-3.489 3.489c-.72.72-.72 1.887 0 2.606l1.303 1.303c.36.36.832.54 1.303.54s.943-.18 1.303-.54l3.489-3.489 1.528 3.183c.187.389.551.576.913.576.423 0 .843-.254.981-.739l3.612-12.708a1.02 1.02 0 0 0-1.257-1.255zm-3.533 11.364l-1.71-3.562-5.328 5.328-1.303-1.303 5.328-5.328-3.561-1.711 9.186-2.611-2.611 9.186zm8.515-10.483c0-2.54-2.067-4.607-4.607-4.607-1.943 0-3.601 1.213-4.277 2.919l4.277-1.076a2.77 2.77 0 0 1 2.764 2.764c0 .649-.179 1.12-1.076 4.277 1.706-.675 2.919-2.334 2.919-4.277zm-4.382 9.422c5.113-.123 9.219-4.28 9.219-9.422a9.44 9.44 0 0 0-9.445-9.445c-5.143 0-9.299 4.106-9.422 9.219l1.898-.539c.39-3.829 3.595-6.837 7.525-6.837 4.192 0 7.602 3.41 7.602 7.602 0 3.929-3.009 7.134-6.837 7.525l-.54 1.898zM15.249.51C7.361.51.967 6.904.967 14.792a14.36 14.36 0 0 0 .063 1.246c.199-.113.403-.223.633-.288l1.179-.335c-.01-.207-.032-.412-.032-.623 0-6.859 5.581-12.439 12.439-12.439s12.44 5.581 12.44 12.439-5.581 12.44-12.439 12.44c-.21 0-.415-.021-.623-.032l-.335 1.178c-.066.232-.181.432-.296.632.414.036.83.063 1.254.063 7.888 0 14.282-6.394 14.282-14.282S23.138.51 15.249.51z"></path></svg>